<svg xmlns="http://www.w3.org/2000/svg" width="20" height="20" viewBox="0 0 20 20">
  <defs>
    <style>
      .cls-1 {
        fill-rule: evenodd;
      }
    </style>
  </defs>
  <path id="icon_vkontakte" class="cls-1" d="M149,2291a10,10,0,1,1-10,10A10,10,0,0,1,149,2291Zm6.978,7.5c0.109,0.26-.233.88-1.094,1.88-1.415,1.65-1.568,1.5-.4,2.45a5.929,5.929,0,0,1,1.393,1.41s0.467,0.72-.518.73l-1.866.02a1.7,1.7,0,0,1-.934-0.25c-0.7-.42-1.356-1.51-1.866-1.37a1.009,1.009,0,0,0-.511,1.13,0.474,0.474,0,0,1-.109.33,0.682,0.682,0,0,1-.387.14h-0.838a5.49,5.49,0,0,1-3.471-1.39,16.867,16.867,0,0,1-3.34-4.83,0.275,0.275,0,0,1,.008-0.32,0.568,0.568,0,0,1,.415-0.12l2-.01a0.855,0.855,0,0,1,.321.12,0.5,0.5,0,0,1,.175.2,11.932,11.932,0,0,0,.751,1.37c0.729,1.32,1.225,1.54,1.509,1.41,0,0,.372-0.2.292-1.79a1.7,1.7,0,0,0-.212-0.84,1.029,1.029,0,0,0-.619-0.28c-0.11-.01.073-0.24,0.313-0.34a5.132,5.132,0,0,1,1.743-.16,4.137,4.137,0,0,1,.984.09c0.693,0.14.46,0.71,0.46,2.06a1.4,1.4,0,0,0,.262,1.24c0.153,0.09.533,0.02,1.466-1.38a10.74,10.74,0,0,0,.78-1.44,0.414,0.414,0,0,1,.182-0.2,0.583,0.583,0,0,1,.277-0.03l2.1-.02c0.635-.07.737,0.19,0.737,0.19h0Z" transform="translate(-139 -2291)"/>
</svg>
