<svg xmlns="http://www.w3.org/2000/svg" xmlns:xlink="http://www.w3.org/1999/xlink"><symbol id="arrow_down"><path d="M11.774.288a1 1 0 0 1 0 1.415l-5.071 5.07a1 1 0 0 1-1.415-1.414L10.359.288a1 1 0 0 1 1.415 0zM.288.288a1 1 0 0 1 1.415 0l5.071 5.071a1 1 0 0 1-1.415 1.414L.288 1.703a1 1 0 0 1 0-1.415z" fill="#020efb" fill-rule="evenodd"/></symbol><symbol id="icon_book" viewBox="0 0 51.5 40"><path d="M37.5 3a15.75 15.75 0 0 0-12 2S21.12 1.94 14 3.5C4.56 5.57 0 .5 0 .5v36s5.1 3.57 14 1A12.75 12.75 0 0 1 25.5 40s5.35-4.92 12-3c8.9 2.57 14-1 14-1V0s-4.56 5.07-14 3zm-13 33.25A12.57 12.57 0 0 0 14 34.5c-8.9 2.57-12 0-12 0L2.5 5S4.56 8.57 14 6.5a16.22 16.22 0 0 1 10.5 1zm25-2.25s-3.1 2.57-12 0c-4.94-1.42-9.15.92-11 2.22V7.4a16.16 16.16 0 0 1 11-1.4c9.44 2.07 12-2 12-2zm-33-13h-6a1 1 0 0 0 0 2h6a1 1 0 0 0 0-2zm27-6h-12a1 1 0 0 0 0 2h12a1 1 0 0 0 0-2zm-37 1a1 1 0 0 0 1 1h12a1 1 0 0 0 0-2h-12a1 1 0 0 0-1 1zm34 5h-6a1 1 0 0 0 0 2h6a1 1 0 0 0 0-2z" fill="#d7569c"/></symbol><symbol id="icon_box" viewBox="0 0 57 42"><path d="M55 0H2a2 2 0 0 0-2 2v8a2 2 0 0 0 2 2h1v28a2 2 0 0 0 2 2h46a2 2 0 0 0 2-2V12h2a2 2 0 0 0 2-2V2a2 2 0 0 0-2-2zM35 2v23s-6-4.12-6-4-8 5-8 5V2zm20 6v2h-4v30H5V10H2V2h17v8H9a1 1 0 0 0 0 2h10v17s10-4.92 10-5 8 5 8 5V12h10a1 1 0 0 0 0-2H37V2h18z" fill="#d7569c" data-name="Layer 2"/></symbol><symbol id="icon_delivery" viewBox="0 0 67 38"><path d="M67 15A10 10 0 0 0 57 5h-7V0H16v8H7l.14 2H18V2h30v26H18v-8H8l-.4-4h25l-2.42 2.41a1 1 0 0 0 1.42 1.42l3.74-3.75a1 1 0 0 0 .5-.25 1 1 0 0 0 .26-.83.93.93 0 0 0-.77-1.08l-3.74-3.75a1 1 0 0 0-1.42 1.42L32.59 14H1a1 1 0 0 0 0 2h6.57L8 22h8v8h8a5 5 0 1 0 8 0h22a5 5 0 1 0 8 0h5zM28 36a3 3 0 1 1 3-3 3 3 0 0 1-3 3zm30 0a3 3 0 1 1 3-3 3 3 0 0 1-3 3zm7-8H50V7h7c4 0 8 4 8 8z" fill="#d7569c" data-name="Layer 2"/></symbol><symbol id="icon_facebook"><path d="M10 0A10 10 0 1 1 0 10 10 10 0 0 1 10 0zm2.993 4.086v1.9H11.9a.868.868 0 0 0-1.014 1.039v1.363h2.035l-.271 2.134h-1.764V16H8.761v-5.474H6.99V8.392h1.771V6.82A2.528 2.528 0 0 1 11.41 4a13.342 13.342 0 0 1 1.583.086z" fill-rule="evenodd"/></symbol><symbol id="icon_like"><path d="M7.521 2.933c-.094-.033 3.26-4.958 6.388-1.77 5.237 5.34-6.378 10.618-6.388 10.618-.054 0-11-6.234-6.388-10.618 3.635-3.453 6.472 1.799 6.388 1.77z" fill="#d7569c" fill-rule="evenodd"/></symbol><symbol id="icon_map" viewBox="0 0 52 47"><path d="M43 2a6.88 6.88 0 0 1 7 6.73c0 .79-.48 3.93-6.41 12.12C40.37 17.13 36 11.25 36 8.73A6.88 6.88 0 0 1 43 2m.25 11.09a4 4 0 1 0-4-4 4 4 0 0 0 4 4M12 16a10 10 0 0 1 10 10c0 1.5-.92 6.19-9.17 17.8C8.89 39.17 2 30.06 2 26a10 10 0 0 1 10-10m0 17a7 7 0 1 0-7-7 7 7 0 0 0 7 7M43 0a8.87 8.87 0 0 0-9 8.73C34 13.54 43.74 24 43.75 24c0-.09 8.25-10.45 8.25-15.27A8.87 8.87 0 0 0 43 0zm.25 11.09a2 2 0 1 1 2-2 2 2 0 0 1-2 2zM12 14A12 12 0 0 0 0 26c0 6.62 13 21 13 21 0-.12 11-14.37 11-21a12 12 0 0 0-12-12zm0 17a5 5 0 1 1 5-5 5 5 0 0 1-5 5zm27.89-4c-.63 0-3.81.15-7.89 3a19.91 19.91 0 0 0-7 9l15-12z" fill="#d7569c" data-name="Layer 2"/></symbol><symbol id="icon_phone"><path d="M401.129 311.475c-1.137-3.426-8.371-8.473-21.697-15.129-3.61-2.098-8.754-4.949-15.41-8.566a1437.412 1437.412 0 0 1-18.13-9.996 605.612 605.612 0 0 1-15.276-8.846c-.76-.571-3.139-2.234-7.136-5-4.001-2.758-7.375-4.805-10.14-6.14-2.759-1.327-5.473-1.995-8.138-1.995-3.806 0-8.56 2.714-14.268 8.135a139.01 139.01 0 0 0-15.7 17.706c-4.757 6.379-9.802 12.275-15.126 17.7-5.332 5.427-9.713 8.138-13.135 8.138-1.718 0-3.86-.479-6.427-1.424-2.566-.951-4.518-1.766-5.858-2.423-1.328-.671-3.607-1.999-6.845-4.004-3.244-1.999-5.048-3.094-5.428-3.285-26.075-14.469-48.438-31.029-67.093-49.676-18.649-18.658-35.211-41.019-49.676-67.097-.19-.381-1.287-2.19-3.284-5.424-2-3.237-3.333-5.518-3.999-6.854-.666-1.331-1.475-3.283-2.425-5.852s-1.427-4.709-1.427-6.424c0-3.424 2.713-7.804 8.138-13.134 5.424-5.327 11.326-10.373 17.7-15.128a138.95 138.95 0 0 0 17.701-15.699c5.424-5.711 8.136-10.467 8.136-14.273 0-2.663-.666-5.378-1.997-8.137-1.332-2.765-3.378-6.139-6.139-10.138-2.762-3.997-4.427-6.374-4.999-7.139a627.13 627.13 0 0 1-8.848-15.271 1441.4 1441.4 0 0 1-9.995-18.131c-3.615-6.658-6.468-11.799-8.564-15.415C98.986 9.233 93.943 1.997 90.516.859 89.183.288 87.183 0 84.521 0c-5.142 0-11.85.95-20.129 2.856-8.282 1.903-14.799 3.899-19.558 5.996-9.517 3.995-19.604 15.605-30.264 34.826C4.863 61.566.01 79.271.01 96.78c0 5.135.333 10.131.999 14.989.666 4.853 1.856 10.326 3.571 16.418 1.712 6.09 3.093 10.614 4.137 13.56 1.045 2.948 2.996 8.229 5.852 15.845 2.852 7.614 4.567 12.275 5.138 13.988 6.661 18.654 14.56 35.307 23.695 49.964 15.03 24.362 35.541 49.539 61.521 75.521 25.981 25.98 51.153 46.49 75.517 61.526 14.655 9.134 31.314 17.032 49.965 23.698 1.714.568 6.375 2.279 13.986 5.141 7.614 2.854 12.897 4.805 15.845 5.852 2.949 1.048 7.474 2.43 13.559 4.145 6.098 1.715 11.566 2.905 16.419 3.576 4.856.657 9.853.996 14.989.996 17.508 0 35.214-4.856 53.105-14.562 19.219-10.656 30.826-20.745 34.823-30.269 2.102-4.754 4.093-11.273 5.996-19.555 1.909-8.278 2.857-14.985 2.857-20.126.006-2.673-.281-4.668-.855-6.012z"/></symbol><symbol id="icon_thumbs_down"><path data-name="&#x424;&#x438;&#x433;&#x443;&#x440;&#x430; 1" d="M3 3.654a.75.75 0 1 0-.75.73.746.746 0 0 0 .75-.73zm13.5 6.577c0-.423-.328-1.45-.879-1.462a2.021 2.021 0 0 0 .41-1.176 1.8 1.8 0 0 0-.621-1.359 1.557 1.557 0 0 0 .211-.788 1.687 1.687 0 0 0-.762-1.438 3.846 3.846 0 0 0 .059-.64c0-1.336-.867-1.907-2.168-1.907h-1.5a12.664 12.664 0 0 0-4.008.834 9.31 9.31 0 0 1-2.367.628H4.5v7.308h.375c.926 0 2.32 1.952 2.848 2.614.293.354.574.708.9 1.04 1.137 1.164.75 2.911 1.5 3.653 1.605 0 1.875-.856 1.875-2.192s-1.125-2.318-1.125-3.654H15a1.531 1.531 0 0 0 1.5-1.461zm1.5.011a3 3 0 0 1-3 2.912h-2.063a4.764 4.764 0 0 1 .563 2.192 4.291 4.291 0 0 1-.41 2.124A3.139 3.139 0 0 1 10.125 19a1.553 1.553 0 0 1-1.055-.423c-1.172-1.119-.808-2.923-1.5-3.665a19.084 19.084 0 0 1-1.254-1.45 10.726 10.726 0 0 0-1.605-1.77H1.5A1.477 1.477 0 0 1 0 10.231V2.923a1.477 1.477 0 0 1 1.5-1.462h3.375a8.854 8.854 0 0 0 1.617-.456 14.739 14.739 0 0 1 4.957-1h1.313c2.132 0 3.668 1.233 3.656 3.368v.057a3.276 3.276 0 0 1 .7 2.033 3.525 3.525 0 0 1-.035.491 3.27 3.27 0 0 1 .445 1.644 2.981 2.981 0 0 1-.1.788 3.3 3.3 0 0 1 .574 1.861z" fill-rule="evenodd"/></symbol><symbol id="icon_thumbs_up"><path d="M3 15.346a.75.75 0 1 0-.75.731.746.746 0 0 0 .75-.731zm13.5-6.577A1.531 1.531 0 0 0 15 7.308h-4.125C10.875 5.972 12 5.001 12 3.654s-.27-2.193-1.875-2.193c-.75.743-.363 2.49-1.5 3.654-.328.331-.609.685-.9 1.039-.528.663-1.922 2.615-2.848 2.615H4.5v7.308h.375a9.31 9.31 0 0 1 2.367.628 12.663 12.663 0 0 0 4.008.833h1.418c1.324 0 2.25-.513 2.25-1.906a3.846 3.846 0 0 0-.059-.64 1.686 1.686 0 0 0 .762-1.439 1.551 1.551 0 0 0-.211-.787 1.8 1.8 0 0 0 .621-1.359 2.018 2.018 0 0 0-.41-1.176c.551-.012.879-1.039.879-1.462zm1.5-.011a3.3 3.3 0 0 1-.574 1.861 2.981 2.981 0 0 1 .105.788 3.27 3.27 0 0 1-.445 1.644 3.525 3.525 0 0 1 .035.491 3.276 3.276 0 0 1-.7 2.033C16.444 17.733 14.933 19 12.765 19H11.25a14.757 14.757 0 0 1-4.758-1 8.859 8.859 0 0 0-1.617-.457H1.5A1.476 1.476 0 0 1 0 16.082V8.774a1.476 1.476 0 0 1 1.5-1.461h3.211a10.726 10.726 0 0 0 1.6-1.77c.4-.5.809-.994 1.254-1.462.7-.73.328-2.535 1.5-3.654A1.557 1.557 0 0 1 10.12.005a3.138 3.138 0 0 1 2.965 1.53 4.291 4.291 0 0 1 .41 2.124 4.764 4.764 0 0 1-.563 2.192H15a3 3 0 0 1 3 2.912z" fill-rule="evenodd"/></symbol><symbol id="icon_vkontakte"><path d="M10 0A10 10 0 1 1 0 10 10 10 0 0 1 10 0zm6.978 7.5c.109.262-.233.877-1.094 1.881-1.414 1.651-1.567 1.5-.4 2.451a5.606 5.606 0 0 1 1.393 1.414s.467.717-.518.723l-1.866.026a1.708 1.708 0 0 1-.934-.25c-.7-.422-1.356-1.517-1.866-1.376a1.011 1.011 0 0 0-.511 1.133.456.456 0 0 1-.109.326.666.666 0 0 1-.387.141h-.838a5.481 5.481 0 0 1-3.471-1.388 16.922 16.922 0 0 1-3.34-4.831.262.262 0 0 1 .008-.314.565.565 0 0 1 .415-.121l2-.013a.8.8 0 0 1 .321.115.482.482 0 0 1 .175.2 12.287 12.287 0 0 0 .751 1.369c.729 1.318 1.225 1.542 1.509 1.408 0 0 .372-.2.292-1.792a1.713 1.713 0 0 0-.211-.838 1.023 1.023 0 0 0-.62-.275c-.109-.013.073-.243.313-.346a5.162 5.162 0 0 1 1.743-.154 4.4 4.4 0 0 1 .985.084c.692.147.459.71.459 2.066a1.413 1.413 0 0 0 .262 1.242c.154.089.533.013 1.466-1.382a11.215 11.215 0 0 0 .78-1.44.4.4 0 0 1 .183-.2.531.531 0 0 1 .277-.039l2.1-.012c.634-.071.736.185.736.185z" fill-rule="evenodd"/></symbol><symbol id="wave-shape"><path d="M100 3S90 13 80 13 60 3 50 3c-9.053 0-14 10-26 10C16 13 1 3 1 3" fill="none" stroke="#fff" stroke-width="2"/></symbol></svg>