<svg xmlns="http://www.w3.org/2000/svg" xmlns:xlink="http://www.w3.org/1999/xlink"><symbol id="icon_arrow-next-white"><path d="M8.71 7.2a.985.985 0 0 1 0 1.4l-7.03 7.107a.987.987 0 1 1-1.39-1.4L7.32 7.2a.977.977 0 0 1 1.39 0zm0 1.592a.977.977 0 0 1-1.39 0L.29 1.685a.987.987 0 1 1 1.39-1.4l7.03 7.107a.985.985 0 0 1 0 1.408z" fill="#fff" fill-rule="evenodd"/></symbol><symbol id="icon_arrow-next"><path d="M8.71 7.2a.985.985 0 0 1 0 1.4l-7.03 7.107a.987.987 0 0 1-1.39-1.4L7.32 7.2a.977.977 0 0 1 1.39 0zm0 1.591a.975.975 0 0 1-1.39 0L.29 1.685a.987.987 0 0 1 1.39-1.4l7.03 7.108a.984.984 0 0 1 0 1.407z" fill="#ef529f" fill-rule="evenodd"/></symbol><symbol id="icon_arrow-prev"><path d="M.286 8.8a1 1 0 0 1 0-1.4L7.324.292a.977.977 0 0 1 1.39 0 1 1 0 0 1 0 1.4L1.676 8.798a.975.975 0 0 1-1.39.002zm0-1.591a.977.977 0 0 1 1.39 0l7.038 7.107a1 1 0 0 1 0 1.4.977.977 0 0 1-1.39 0L.286 8.609a1 1 0 0 1 0-1.409z" fill="#ef529f" fill-rule="evenodd"/></symbol><symbol id="icon_basket"><path d="M7.5 16a2.5 2.5 0 1 0 2.5 2.5A2.5 2.5 0 0 0 7.5 16zm7 0a2.5 2.5 0 1 0 2.5 2.5 2.5 2.5 0 0 0-2.5-2.5zm4-12H5L4 .12V0H0v2h2.43l.74 2.76a1.46 1.46 0 0 0-.17.65l2 7.18A1.43 1.43 0 0 0 6.46 14h8.42c.81 0 2.2-.63 2.2-1.41L20 5.41A1.43 1.43 0 0 0 18.54 4z"/></symbol><symbol id="icon_book" viewBox="0 0 51.5 40"><path d="M37.5 3a15.75 15.75 0 0 0-12 2S21.12 1.94 14 3.5C4.56 5.57 0 .5 0 .5v36s5.1 3.57 14 1A12.75 12.75 0 0 1 25.5 40s5.35-4.92 12-3c8.9 2.57 14-1 14-1V0s-4.56 5.07-14 3zm-13 33.25A12.57 12.57 0 0 0 14 34.5c-8.9 2.57-12 0-12 0L2.5 5S4.56 8.57 14 6.5a16.22 16.22 0 0 1 10.5 1zm25-2.25s-3.1 2.57-12 0c-4.94-1.42-9.15.92-11 2.22V7.4a16.16 16.16 0 0 1 11-1.4c9.44 2.07 12-2 12-2zm-33-13h-6a1 1 0 0 0 0 2h6a1 1 0 0 0 0-2zm27-6h-12a1 1 0 0 0 0 2h12a1 1 0 0 0 0-2zm-37 1a1 1 0 0 0 1 1h12a1 1 0 0 0 0-2h-12a1 1 0 0 0-1 1zm34 5h-6a1 1 0 0 0 0 2h6a1 1 0 0 0 0-2z" fill="#d7569c"/></symbol><symbol id="icon_box" viewBox="0 0 57 42"><path d="M55 0H2a2 2 0 0 0-2 2v8a2 2 0 0 0 2 2h1v28a2 2 0 0 0 2 2h46a2 2 0 0 0 2-2V12h2a2 2 0 0 0 2-2V2a2 2 0 0 0-2-2zM35 2v23s-6-4.12-6-4-8 5-8 5V2zm20 6v2h-4v30H5V10H2V2h17v8H9a1 1 0 0 0 0 2h10v17s10-4.92 10-5 8 5 8 5V12h10a1 1 0 0 0 0-2H37V2h18z" fill="#d7569c" data-name="Layer 2"/></symbol><symbol id="icon_check"><path d="M11.65.29a1 1 0 0 1 0 1.41L4.58 8.77a1 1 0 0 1-1.41-1.41L10.24.29a1 1 0 0 1 1.41 0zM.29 4.41a1 1 0 0 1 1.41 0l2.83 2.83a1 1 0 0 1-1.41 1.41L.29 5.82a1 1 0 0 1 0-1.41z" fill="#d7569c" fill-rule="evenodd"/></symbol><symbol id="icon_delivery" viewBox="0 0 67 38"><path d="M67 15A10 10 0 0 0 57 5h-7V0H16v8H7l.14 2H18V2h30v26H18v-8H8l-.4-4h25l-2.42 2.41a1 1 0 0 0 1.42 1.42l3.74-3.75a1 1 0 0 0 .5-.25 1 1 0 0 0 .26-.83.93.93 0 0 0-.77-1.08l-3.74-3.75a1 1 0 0 0-1.42 1.42L32.59 14H1a1 1 0 0 0 0 2h6.57L8 22h8v8h8a5 5 0 1 0 8 0h22a5 5 0 1 0 8 0h5zM28 36a3 3 0 1 1 3-3 3 3 0 0 1-3 3zm30 0a3 3 0 1 1 3-3 3 3 0 0 1-3 3zm7-8H50V7h7c4 0 8 4 8 8z" fill="#d7569c" data-name="Layer 2"/></symbol><symbol id="icon_facebook"><path d="M10 0A10 10 0 1 1 0 10 10 10 0 0 1 10 0zm2.993 4.09v1.9H11.9a.87.87 0 0 0-1.014 1.04v1.36h2.035l-.271 2.14h-1.761V16H8.764v-5.47H6.993V8.39h1.771V6.82A2.531 2.531 0 0 1 11.41 4a12.619 12.619 0 0 1 1.584.09z" fill-rule="evenodd"/></symbol><symbol id="icon_map" viewBox="0 0 52 47"><path d="M43 2a6.88 6.88 0 0 1 7 6.73c0 .79-.48 3.93-6.41 12.12C40.37 17.13 36 11.25 36 8.73A6.88 6.88 0 0 1 43 2m.25 11.09a4 4 0 1 0-4-4 4 4 0 0 0 4 4M12 16a10 10 0 0 1 10 10c0 1.5-.92 6.19-9.17 17.8C8.89 39.17 2 30.06 2 26a10 10 0 0 1 10-10m0 17a7 7 0 1 0-7-7 7 7 0 0 0 7 7M43 0a8.87 8.87 0 0 0-9 8.73C34 13.54 43.74 24 43.75 24c0-.09 8.25-10.45 8.25-15.27A8.87 8.87 0 0 0 43 0zm.25 11.09a2 2 0 1 1 2-2 2 2 0 0 1-2 2zM12 14A12 12 0 0 0 0 26c0 6.62 13 21 13 21 0-.12 11-14.37 11-21a12 12 0 0 0-12-12zm0 17a5 5 0 1 1 5-5 5 5 0 0 1-5 5zm27.89-4c-.63 0-3.81.15-7.89 3a19.91 19.91 0 0 0-7 9l15-12z" fill="#d7569c" data-name="Layer 2"/></symbol><symbol id="icon_phone"><path d="M4.84 1.274l-.9-.948s-1.12-.747-1.82 0-1.81 1.9-1.81 1.9-1.12.841.91 3.792S9.37 15.5 9.37 15.5s1.3 1.161 3.63 0 2.72-1.9 2.72-1.9a1.822 1.822 0 0 0 0-1.9 5.741 5.741 0 0 0-1.82-1.9 2.693 2.693 0 0 0-2.71.948C9.32 12.87 4.84 6.956 4.84 6.956a2 2 0 0 1 0-1.9c1.18-1.569 1.96-1.349.91-2.844"/></symbol><symbol id="icon_thumbs_down"><path data-name="&#x424;&#x438;&#x433;&#x443;&#x440;&#x430; 1" d="M3 3.65a.75.75 0 1 0-.75.73.745.745 0 0 0 .75-.73zm13.5 6.58c0-.42-.328-1.45-.879-1.46a2.011 2.011 0 0 0 .41-1.18 1.815 1.815 0 0 0-.621-1.36 1.539 1.539 0 0 0 .211-.78 1.68 1.68 0 0 0-.762-1.44 3.856 3.856 0 0 0 .059-.64c0-1.34-.867-1.91-2.168-1.91h-1.5a12.77 12.77 0 0 0-4.008.83 9.192 9.192 0 0 1-2.367.63H4.5v7.31h.375c.926 0 2.32 1.95 2.848 2.62.292.35.574.7.9 1.03 1.136 1.17.75 2.92 1.5 3.66 1.605 0 1.875-.86 1.875-2.19 0-1.35-1.125-2.32-1.125-3.66H15a1.527 1.527 0 0 0 1.5-1.46zm1.5.01a3 3 0 0 1-3 2.91h-2.063a4.8 4.8 0 0 1 .563 2.2 4.3 4.3 0 0 1-.41 2.12A3.136 3.136 0 0 1 10.125 19a1.56 1.56 0 0 1-1.055-.42c-1.172-1.12-.808-2.93-1.5-3.67a18.161 18.161 0 0 1-1.254-1.45 11.059 11.059 0 0 0-1.6-1.77H1.5A1.476 1.476 0 0 1 0 10.23V2.92a1.476 1.476 0 0 1 1.5-1.46h3.375A8.419 8.419 0 0 0 6.492 1a14.758 14.758 0 0 1 4.957-1h1.312c2.133 0 3.669 1.23 3.657 3.37v.06a3.268 3.268 0 0 1 .7 2.03 3.511 3.511 0 0 1-.035.49 3.253 3.253 0 0 1 .445 1.64 2.953 2.953 0 0 1-.105.79 3.305 3.305 0 0 1 .574 1.86z" fill-rule="evenodd"/></symbol><symbol id="icon_thumbs_up"><path d="M3 15.35a.75.75 0 1 0-.75.73.745.745 0 0 0 .75-.73zm13.5-6.58A1.527 1.527 0 0 0 15 7.31h-4.125C10.875 5.97 12 5 12 3.65c0-1.33-.27-2.19-1.875-2.19-.75.74-.364 2.49-1.5 3.66-.328.33-.61.68-.9 1.03-.527.67-1.921 2.62-2.847 2.62H4.5v7.31h.375a9.588 9.588 0 0 1 2.367.62 12.508 12.508 0 0 0 4.008.84h1.418c1.324 0 2.25-.52 2.25-1.91a3.752 3.752 0 0 0-.059-.64 1.68 1.68 0 0 0 .762-1.44 1.539 1.539 0 0 0-.211-.78 1.815 1.815 0 0 0 .621-1.36 2.011 2.011 0 0 0-.41-1.18c.551-.01.879-1.04.879-1.46zm1.5-.01a3.305 3.305 0 0 1-.574 1.86 2.953 2.953 0 0 1 .105.79 3.253 3.253 0 0 1-.445 1.64 3.511 3.511 0 0 1 .035.49 3.268 3.268 0 0 1-.7 2.03c.023 2.16-1.488 3.43-3.656 3.43H11.25a14.632 14.632 0 0 1-4.758-1.01 9.155 9.155 0 0 0-1.617-.45H1.5A1.476 1.476 0 0 1 0 16.08V8.77a1.476 1.476 0 0 1 1.5-1.46h3.211a11.059 11.059 0 0 0 1.6-1.77c.4-.5.809-1 1.254-1.46.7-.73.328-2.54 1.5-3.66A1.56 1.56 0 0 1 10.12 0a3.136 3.136 0 0 1 2.965 1.53 4.3 4.3 0 0 1 .41 2.12 4.8 4.8 0 0 1-.563 2.2H15a3 3 0 0 1 3 2.91z" fill-rule="evenodd"/></symbol><symbol id="icon_vkontakte"><path d="M10 0A10 10 0 1 1 0 10 10 10 0 0 1 10 0zm6.978 7.5c.109.26-.233.88-1.094 1.88-1.415 1.65-1.568 1.5-.4 2.45a5.929 5.929 0 0 1 1.393 1.41s.467.72-.518.73l-1.866.02a1.7 1.7 0 0 1-.934-.25c-.7-.42-1.356-1.51-1.866-1.37a1.009 1.009 0 0 0-.511 1.13.474.474 0 0 1-.109.33.682.682 0 0 1-.387.14h-.838a5.49 5.49 0 0 1-3.471-1.39 16.867 16.867 0 0 1-3.34-4.83.275.275 0 0 1 .008-.32.568.568 0 0 1 .415-.12l2-.01a.855.855 0 0 1 .321.12.5.5 0 0 1 .175.2 11.932 11.932 0 0 0 .751 1.37c.729 1.32 1.225 1.54 1.509 1.41 0 0 .372-.2.292-1.79a1.7 1.7 0 0 0-.212-.84 1.029 1.029 0 0 0-.619-.28c-.11-.01.073-.24.313-.34a5.132 5.132 0 0 1 1.743-.16 4.137 4.137 0 0 1 .984.09c.693.14.46.71.46 2.06a1.4 1.4 0 0 0 .262 1.24c.153.09.533.02 1.466-1.38a10.74 10.74 0 0 0 .78-1.44.414.414 0 0 1 .182-.2.583.583 0 0 1 .277-.03l2.1-.02c.635-.07.737.19.737.19z" fill-rule="evenodd"/></symbol></svg>